<svg width="32" height="32" viewBox="0 0 32 32" fill="none" xmlns="http://www.w3.org/2000/svg">
<path d="M16 28C22.6274 28 28 22.6274 28 16C28 9.37258 22.6274 4 16 4C9.37258 4 4 9.37258 4 16C4 22.6274 9.37258 28 16 28Z" stroke="black" stroke-linecap="round" stroke-linejoin="round"/>
<path d="M4.6875 12H27.3125" stroke="black" stroke-linecap="round" stroke-linejoin="round"/>
<path d="M4.6875 20H27.3125" stroke="black" stroke-linecap="round" stroke-linejoin="round"/>
<path d="M16 27.6748C18.7614 27.6748 21 22.4478 21 15.9998C21 9.5519 18.7614 4.32483 16 4.32483C13.2386 4.32483 11 9.5519 11 15.9998C11 22.4478 13.2386 27.6748 16 27.6748Z" stroke="black" stroke-linecap="round" stroke-linejoin="round"/>
</svg>
